<svg width="16" height="12" viewBox="0 0 16 12" fill="none" xmlns="http://www.w3.org/2000/svg">
<path d="M8 0.36377C4.36364 0.36377 1.25818 2.62559 0 5.81832C1.25818 9.01104 4.36364 11.2729 8 11.2729C11.6364 11.2729 14.7418 9.01104 16 5.81832C14.7418 2.62559 11.6364 0.36377 8 0.36377ZM8 9.45468C5.99273 9.45468 4.36364 7.82559 4.36364 5.81832C4.36364 3.81104 5.99273 2.18195 8 2.18195C10.0073 2.18195 11.6364 3.81104 11.6364 5.81832C11.6364 7.82559 10.0073 9.45468 8 9.45468ZM8 3.6365C6.79273 3.6365 5.81818 4.61104 5.81818 5.81832C5.81818 7.02559 6.79273 8.00013 8 8.00013C9.20727 8.00013 10.1818 7.02559 10.1818 5.81832C10.1818 4.61104 9.20727 3.6365 8 3.6365Z" />
</svg>
